<svg xmlns="http://www.w3.org/2000/svg" xmlns:xlink="http://www.w3.org/1999/xlink" width="408.57" height="653.72" viewBox="0 0 408.57 653.72">
  <defs>
    <style>
      .cls-1 {
        fill: none;
      }

      .cls-2 {
        clip-path: url(#clip-path);
      }

      .cls-3 {
        fill: url(#Gradiente_sem_nome_86);
      }

      .cls-4 {
        fill: url(#Gradiente_sem_nome_86-2);
      }

      .cls-5 {
        fill: url(#Gradiente_sem_nome_86-3);
      }

      .cls-6 {
        fill: url(#Gradiente_sem_nome_86-4);
      }

      .cls-7 {
        fill: url(#Gradiente_sem_nome_86-5);
      }

      .cls-8 {
        fill: url(#Gradiente_sem_nome_86-6);
      }

      .cls-9 {
        fill: url(#Gradiente_sem_nome_86-7);
      }

      .cls-10 {
        fill: url(#Gradiente_sem_nome_86-8);
      }

      .cls-11 {
        fill: url(#Gradiente_sem_nome_86-9);
      }

      .cls-12 {
        fill: url(#Gradiente_sem_nome_86-10);
      }

      .cls-13 {
        fill: url(#Gradiente_sem_nome_86-11);
      }

      .cls-14 {
        fill: url(#Gradiente_sem_nome_86-12);
      }

      .cls-15 {
        fill: url(#Gradiente_sem_nome_86-13);
      }

      .cls-16 {
        fill: url(#Gradiente_sem_nome_86-14);
      }

      .cls-17 {
        fill: url(#Gradiente_sem_nome_86-15);
      }

      .cls-18 {
        fill: url(#Gradiente_sem_nome_86-16);
      }

      .cls-19 {
        fill: url(#Gradiente_sem_nome_86-17);
      }

      .cls-20 {
        fill: url(#Gradiente_sem_nome_86-18);
      }

      .cls-21 {
        fill: url(#Gradiente_sem_nome_86-19);
      }

      .cls-22 {
        fill: url(#Gradiente_sem_nome_86-20);
      }

      .cls-23 {
        fill: url(#Gradiente_sem_nome_86-21);
      }

      .cls-24 {
        fill: url(#Gradiente_sem_nome_86-22);
      }

      .cls-25 {
        fill: url(#Gradiente_sem_nome_86-23);
      }

      .cls-26 {
        fill: url(#Gradiente_sem_nome_86-24);
      }

      .cls-27 {
        fill: url(#Gradiente_sem_nome_86-25);
      }

      .cls-28 {
        fill: url(#Gradiente_sem_nome_86-26);
      }

      .cls-29 {
        fill: url(#Gradiente_sem_nome_86-27);
      }

      .cls-30 {
        fill: url(#Gradiente_sem_nome_86-28);
      }

      .cls-31 {
        fill: url(#Gradiente_sem_nome_86-29);
      }

      .cls-32 {
        fill: url(#Gradiente_sem_nome_86-30);
      }

      .cls-33 {
        fill: url(#Gradiente_sem_nome_86-31);
      }

      .cls-34 {
        fill: url(#Gradiente_sem_nome_86-32);
      }

      .cls-35 {
        fill: url(#Gradiente_sem_nome_86-33);
      }

      .cls-36 {
        fill: url(#Gradiente_sem_nome_86-34);
      }

      .cls-37 {
        fill: url(#Gradiente_sem_nome_86-35);
      }

      .cls-38 {
        fill: url(#Gradiente_sem_nome_86-36);
      }

      .cls-39 {
        fill: url(#Gradiente_sem_nome_86-37);
      }

      .cls-40 {
        fill: url(#Gradiente_sem_nome_86-38);
      }

      .cls-41 {
        fill: url(#Gradiente_sem_nome_86-39);
      }

      .cls-42 {
        fill: url(#Gradiente_sem_nome_86-40);
      }

      .cls-43 {
        fill: url(#Gradiente_sem_nome_86-41);
      }

      .cls-44 {
        fill: url(#Gradiente_sem_nome_86-42);
      }

      .cls-45 {
        fill: url(#Gradiente_sem_nome_86-43);
      }

      .cls-46 {
        fill: url(#Gradiente_sem_nome_86-44);
      }

      .cls-47 {
        fill: url(#Gradiente_sem_nome_86-45);
      }

      .cls-48 {
        fill: url(#Gradiente_sem_nome_86-46);
      }

      .cls-49 {
        fill: url(#Gradiente_sem_nome_86-47);
      }

      .cls-50 {
        fill: url(#Gradiente_sem_nome_86-48);
      }

      .cls-51 {
        fill: url(#Gradiente_sem_nome_86-49);
      }

      .cls-52 {
        fill: url(#Gradiente_sem_nome_86-50);
      }

      .cls-53 {
        fill: url(#Gradiente_sem_nome_86-51);
      }

      .cls-54 {
        fill: url(#Gradiente_sem_nome_86-52);
      }

      .cls-55 {
        fill: url(#Gradiente_sem_nome_86-53);
      }

      .cls-56 {
        fill: url(#Gradiente_sem_nome_86-54);
      }

      .cls-57 {
        fill: url(#Gradiente_sem_nome_86-55);
      }

      .cls-58 {
        fill: url(#Gradiente_sem_nome_86-56);
      }

      .cls-59 {
        fill: url(#Gradiente_sem_nome_86-57);
      }

      .cls-60 {
        fill: url(#Gradiente_sem_nome_86-58);
      }

      .cls-61 {
        fill: url(#Gradiente_sem_nome_86-59);
      }

      .cls-62 {
        fill: url(#Gradiente_sem_nome_86-60);
      }

      .cls-63 {
        fill: url(#Gradiente_sem_nome_86-61);
      }

      .cls-64 {
        fill: url(#Gradiente_sem_nome_86-62);
      }

      .cls-65 {
        fill: url(#Gradiente_sem_nome_86-63);
      }

      .cls-66 {
        fill: url(#Gradiente_sem_nome_86-64);
      }

      .cls-67 {
        fill: url(#Gradiente_sem_nome_86-65);
      }

      .cls-68 {
        fill: url(#Gradiente_sem_nome_86-66);
      }

      .cls-69 {
        fill: url(#Gradiente_sem_nome_86-67);
      }

      .cls-70 {
        fill: url(#Gradiente_sem_nome_86-68);
      }

      .cls-71 {
        fill: url(#Gradiente_sem_nome_86-69);
      }

      .cls-72 {
        fill: url(#Gradiente_sem_nome_86-70);
      }

      .cls-73 {
        fill: url(#Gradiente_sem_nome_86-71);
      }

      .cls-74 {
        fill: url(#Gradiente_sem_nome_86-72);
      }

      .cls-75 {
        fill: url(#Gradiente_sem_nome_86-73);
      }

      .cls-76 {
        fill: url(#Gradiente_sem_nome_86-74);
      }

      .cls-77 {
        fill: url(#Gradiente_sem_nome_86-75);
      }

      .cls-78 {
        fill: url(#Gradiente_sem_nome_86-76);
      }

      .cls-79 {
        fill: url(#Gradiente_sem_nome_86-77);
      }

      .cls-80 {
        fill: url(#Gradiente_sem_nome_86-78);
      }

      .cls-81 {
        fill: url(#Gradiente_sem_nome_86-79);
      }

      .cls-82 {
        fill: url(#Gradiente_sem_nome_86-80);
      }

      .cls-83 {
        fill: url(#Gradiente_sem_nome_86-81);
      }

      .cls-84 {
        fill: url(#Gradiente_sem_nome_86-82);
      }

      .cls-85 {
        fill: url(#Gradiente_sem_nome_86-83);
      }

      .cls-86 {
        fill: url(#Gradiente_sem_nome_86-84);
      }

      .cls-87 {
        fill: url(#Gradiente_sem_nome_86-85);
      }

      .cls-88 {
        fill: url(#Gradiente_sem_nome_86-86);
      }

      .cls-89 {
        fill: url(#Gradiente_sem_nome_86-87);
      }

      .cls-90 {
        fill: url(#Gradiente_sem_nome_86-88);
      }

      .cls-91 {
        fill: url(#Gradiente_sem_nome_86-89);
      }

      .cls-92 {
        fill: url(#Gradiente_sem_nome_86-90);
      }

      .cls-93 {
        fill: url(#Gradiente_sem_nome_86-91);
      }

      .cls-94 {
        fill: url(#Gradiente_sem_nome_86-92);
      }

      .cls-95 {
        fill: url(#Gradiente_sem_nome_86-93);
      }

      .cls-96 {
        fill: url(#Gradiente_sem_nome_86-94);
      }

      .cls-97 {
        fill: url(#Gradiente_sem_nome_86-95);
      }

      .cls-98 {
        fill: url(#Gradiente_sem_nome_86-96);
      }

      .cls-99 {
        fill: url(#Gradiente_sem_nome_86-97);
      }

      .cls-100 {
        fill: url(#Gradiente_sem_nome_86-98);
      }

      .cls-101 {
        fill: url(#Gradiente_sem_nome_86-99);
      }

      .cls-102 {
        fill: url(#Gradiente_sem_nome_86-100);
      }

      .cls-103 {
        fill: url(#Gradiente_sem_nome_86-101);
      }

      .cls-104 {
        fill: url(#Gradiente_sem_nome_86-102);
      }
    </style>
    <clipPath id="clip-path">
      <rect class="cls-1" width="412" height="584"/>
    </clipPath>
    <linearGradient id="Gradiente_sem_nome_86" data-name="Gradiente sem nome 86" x1="349.09" y1="-16.32" x2="346.79" y2="597.21" gradientUnits="userSpaceOnUse">
      <stop offset="0"/>
      <stop offset="0.02"/>
      <stop offset="0.18"/>
      <stop offset="0.92" stop-color="#161b22" stop-opacity="0"/>
    </linearGradient>
    <linearGradient id="Gradiente_sem_nome_86-2" x1="168.77" y1="-17" x2="166.47" y2="596.53" xlink:href="#Gradiente_sem_nome_86"/>
    <linearGradient id="Gradiente_sem_nome_86-3" x1="161.65" y1="-17.02" x2="159.35" y2="596.51" xlink:href="#Gradiente_sem_nome_86"/>
    <linearGradient id="Gradiente_sem_nome_86-4" x1="162.24" y1="-17.02" x2="159.95" y2="596.51" gradientTransform="translate(256.39 -27.24) rotate(45)" xlink:href="#Gradiente_sem_nome_86"/>
    <linearGradient id="Gradiente_sem_nome_86-5" x1="350" y1="-16.32" x2="347.7" y2="597.21" xlink:href="#Gradiente_sem_nome_86"/>
    <linearGradient id="Gradiente_sem_nome_86-6" x1="68.28" y1="-17.37" x2="65.99" y2="596.16" xlink:href="#Gradiente_sem_nome_86"/>
    <linearGradient id="Gradiente_sem_nome_86-7" x1="146.34" y1="-17.08" x2="144.04" y2="596.45" xlink:href="#Gradiente_sem_nome_86"/>
    <linearGradient id="Gradiente_sem_nome_86-8" x1="88.19" y1="-17.3" x2="85.89" y2="596.23" xlink:href="#Gradiente_sem_nome_86"/>
    <linearGradient id="Gradiente_sem_nome_86-9" x1="76.4" y1="-17.34" x2="74.1" y2="596.19" gradientTransform="translate(250.5 41.52) rotate(45)" xlink:href="#Gradiente_sem_nome_86"/>
    <linearGradient id="Gradiente_sem_nome_86-10" x1="118.37" y1="-17.19" x2="116.08" y2="596.35" xlink:href="#Gradiente_sem_nome_86"/>
    <linearGradient id="Gradiente_sem_nome_86-11" x1="285.24" y1="-16.56" x2="282.94" y2="596.97" xlink:href="#Gradiente_sem_nome_86"/>
    <linearGradient id="Gradiente_sem_nome_86-12" x1="139.29" y1="-17.11" x2="136.99" y2="596.42" xlink:href="#Gradiente_sem_nome_86"/>
    <linearGradient id="Gradiente_sem_nome_86-13" x1="341.48" y1="-16.35" x2="339.18" y2="597.18" xlink:href="#Gradiente_sem_nome_86"/>
    <linearGradient id="Gradiente_sem_nome_86-14" x1="306.82" y1="-16.48" x2="304.52" y2="597.05" gradientTransform="translate(297.06 -130.17) rotate(45)" xlink:href="#Gradiente_sem_nome_86"/>
    <linearGradient id="Gradiente_sem_nome_86-15" x1="244.13" y1="-16.72" x2="241.83" y2="596.82" xlink:href="#Gradiente_sem_nome_86"/>
    <linearGradient id="Gradiente_sem_nome_86-16" x1="390.96" y1="-16.17" x2="388.67" y2="597.37" xlink:href="#Gradiente_sem_nome_86"/>
    <linearGradient id="Gradiente_sem_nome_86-17" x1="235.84" y1="-16.75" x2="233.54" y2="596.79" gradientTransform="translate(277.23 -79.58) rotate(45)" xlink:href="#Gradiente_sem_nome_86"/>
    <linearGradient id="Gradiente_sem_nome_86-18" x1="188.26" y1="-16.92" x2="185.96" y2="596.61" gradientTransform="translate(245.58 -53.35) rotate(45)" xlink:href="#Gradiente_sem_nome_86"/>
    <linearGradient id="Gradiente_sem_nome_86-19" x1="380.86" y1="-16.2" x2="378.56" y2="597.33" xlink:href="#Gradiente_sem_nome_86"/>
    <linearGradient id="Gradiente_sem_nome_86-20" x1="133.43" y1="-17.13" x2="131.13" y2="596.4" xlink:href="#Gradiente_sem_nome_86"/>
    <linearGradient id="Gradiente_sem_nome_86-21" x1="213.43" y1="-16.83" x2="211.13" y2="596.7" xlink:href="#Gradiente_sem_nome_86"/>
    <linearGradient id="Gradiente_sem_nome_86-22" x1="126.56" y1="-17.16" x2="124.26" y2="596.38" xlink:href="#Gradiente_sem_nome_86"/>
    <linearGradient id="Gradiente_sem_nome_86-23" x1="176.16" y1="-16.97" x2="173.86" y2="596.56" xlink:href="#Gradiente_sem_nome_86"/>
    <linearGradient id="Gradiente_sem_nome_86-24" x1="146.39" y1="-17.08" x2="144.09" y2="596.45" xlink:href="#Gradiente_sem_nome_86"/>
    <linearGradient id="Gradiente_sem_nome_86-25" x1="23.34" y1="-17.54" x2="21.04" y2="595.99" xlink:href="#Gradiente_sem_nome_86"/>
    <linearGradient id="Gradiente_sem_nome_86-26" x1="61.4" y1="-17.4" x2="59.1" y2="596.13" xlink:href="#Gradiente_sem_nome_86"/>
    <linearGradient id="Gradiente_sem_nome_86-27" x1="259.17" y1="-16.66" x2="256.87" y2="596.87" xlink:href="#Gradiente_sem_nome_86"/>
    <linearGradient id="Gradiente_sem_nome_86-28" x1="52.73" y1="-17.43" x2="50.43" y2="596.1" xlink:href="#Gradiente_sem_nome_86"/>
    <linearGradient id="Gradiente_sem_nome_86-29" x1="258.98" y1="-16.66" x2="256.68" y2="596.87" xlink:href="#Gradiente_sem_nome_86"/>
    <linearGradient id="Gradiente_sem_nome_86-30" x1="259.35" y1="-16.66" x2="257.06" y2="596.87" xlink:href="#Gradiente_sem_nome_86"/>
    <linearGradient id="Gradiente_sem_nome_86-31" x1="41.17" y1="-17.48" x2="38.87" y2="596.06" xlink:href="#Gradiente_sem_nome_86"/>
    <linearGradient id="Gradiente_sem_nome_86-32" x1="328.64" y1="-16.4" x2="326.34" y2="597.13" xlink:href="#Gradiente_sem_nome_86"/>
    <linearGradient id="Gradiente_sem_nome_86-33" x1="367.88" y1="-16.25" x2="365.59" y2="597.28" xlink:href="#Gradiente_sem_nome_86"/>
    <linearGradient id="Gradiente_sem_nome_86-34" x1="388.25" y1="-16.18" x2="385.96" y2="597.36" xlink:href="#Gradiente_sem_nome_86"/>
    <linearGradient id="Gradiente_sem_nome_86-35" x1="386.3" y1="-16.18" x2="384.01" y2="597.35" xlink:href="#Gradiente_sem_nome_86"/>
    <linearGradient id="Gradiente_sem_nome_86-36" x1="87.3" y1="-17.3" x2="85" y2="596.23" xlink:href="#Gradiente_sem_nome_86"/>
    <linearGradient id="Gradiente_sem_nome_86-37" x1="335.72" y1="-16.37" x2="333.43" y2="597.16" xlink:href="#Gradiente_sem_nome_86"/>
    <linearGradient id="Gradiente_sem_nome_86-38" x1="234.06" y1="-16.75" x2="231.76" y2="596.78" xlink:href="#Gradiente_sem_nome_86"/>
    <linearGradient id="Gradiente_sem_nome_86-39" x1="384.56" y1="-16.19" x2="382.26" y2="597.34" xlink:href="#Gradiente_sem_nome_86"/>
    <linearGradient id="Gradiente_sem_nome_86-40" x1="238.14" y1="-16.74" x2="235.84" y2="596.79" xlink:href="#Gradiente_sem_nome_86"/>
    <linearGradient id="Gradiente_sem_nome_86-41" x1="295.72" y1="-16.52" x2="293.43" y2="597.01" xlink:href="#Gradiente_sem_nome_86"/>
    <linearGradient id="Gradiente_sem_nome_86-42" x1="330.35" y1="-16.39" x2="328.05" y2="597.14" xlink:href="#Gradiente_sem_nome_86"/>
    <linearGradient id="Gradiente_sem_nome_86-43" x1="336.63" y1="-16.37" x2="334.34" y2="597.16" xlink:href="#Gradiente_sem_nome_86"/>
    <linearGradient id="Gradiente_sem_nome_86-44" x1="385.98" y1="-16.18" x2="383.68" y2="597.35" xlink:href="#Gradiente_sem_nome_86"/>
    <linearGradient id="Gradiente_sem_nome_86-45" x1="198.67" y1="-16.89" x2="196.37" y2="596.65" gradientTransform="translate(292.68 -42.27) rotate(45)" xlink:href="#Gradiente_sem_nome_86"/>
    <linearGradient id="Gradiente_sem_nome_86-46" x1="32.41" y1="-17.51" x2="30.11" y2="596.02" xlink:href="#Gradiente_sem_nome_86"/>
    <linearGradient id="Gradiente_sem_nome_86-47" x1="38.73" y1="-17.48" x2="36.43" y2="596.05" xlink:href="#Gradiente_sem_nome_86"/>
    <linearGradient id="Gradiente_sem_nome_86-48" x1="75.99" y1="-17.35" x2="73.69" y2="596.19" xlink:href="#Gradiente_sem_nome_86"/>
    <linearGradient id="Gradiente_sem_nome_86-49" x1="20.63" y1="-17.55" x2="18.33" y2="595.98" xlink:href="#Gradiente_sem_nome_86"/>
    <linearGradient id="Gradiente_sem_nome_86-50" x1="62.71" y1="-17.39" x2="60.42" y2="596.14" xlink:href="#Gradiente_sem_nome_86"/>
    <linearGradient id="Gradiente_sem_nome_86-51" x1="87.18" y1="-17.3" x2="84.89" y2="596.23" xlink:href="#Gradiente_sem_nome_86"/>
    <linearGradient id="Gradiente_sem_nome_86-52" x1="215.14" y1="-16.82" x2="212.84" y2="596.71" xlink:href="#Gradiente_sem_nome_86"/>
    <linearGradient id="Gradiente_sem_nome_86-53" x1="66.96" y1="-17.38" x2="64.67" y2="596.15" xlink:href="#Gradiente_sem_nome_86"/>
    <linearGradient id="Gradiente_sem_nome_86-54" x1="41.02" y1="-17.48" x2="38.72" y2="596.06" xlink:href="#Gradiente_sem_nome_86"/>
    <linearGradient id="Gradiente_sem_nome_86-55" x1="23.17" y1="-17.54" x2="20.87" y2="595.99" xlink:href="#Gradiente_sem_nome_86"/>
    <linearGradient id="Gradiente_sem_nome_86-56" x1="162.34" y1="-17.02" x2="160.04" y2="596.51" xlink:href="#Gradiente_sem_nome_86"/>
    <linearGradient id="Gradiente_sem_nome_86-57" x1="128.23" y1="-17.15" x2="125.93" y2="596.38" xlink:href="#Gradiente_sem_nome_86"/>
    <linearGradient id="Gradiente_sem_nome_86-58" x1="11.67" y1="-17.59" x2="9.37" y2="595.95" xlink:href="#Gradiente_sem_nome_86"/>
    <linearGradient id="Gradiente_sem_nome_86-59" x1="17.46" y1="-17.56" x2="15.16" y2="595.97" xlink:href="#Gradiente_sem_nome_86"/>
    <linearGradient id="Gradiente_sem_nome_86-60" x1="233.89" y1="-16.75" x2="231.59" y2="596.78" xlink:href="#Gradiente_sem_nome_86"/>
    <linearGradient id="Gradiente_sem_nome_86-61" x1="335.64" y1="-16.37" x2="333.35" y2="597.16" xlink:href="#Gradiente_sem_nome_86"/>
    <linearGradient id="Gradiente_sem_nome_86-62" x1="122.41" y1="-17.17" x2="120.11" y2="596.36" xlink:href="#Gradiente_sem_nome_86"/>
    <linearGradient id="Gradiente_sem_nome_86-63" x1="202.61" y1="-16.87" x2="200.31" y2="596.66" xlink:href="#Gradiente_sem_nome_86"/>
    <linearGradient id="Gradiente_sem_nome_86-64" x1="267.72" y1="-16.63" x2="265.42" y2="596.9" xlink:href="#Gradiente_sem_nome_86"/>
    <linearGradient id="Gradiente_sem_nome_86-65" x1="54.72" y1="-17.42" x2="52.42" y2="596.11" xlink:href="#Gradiente_sem_nome_86"/>
    <linearGradient id="Gradiente_sem_nome_86-66" x1="359.99" y1="-16.28" x2="357.69" y2="597.25" xlink:href="#Gradiente_sem_nome_86"/>
    <linearGradient id="Gradiente_sem_nome_86-67" x1="404.8" y1="-16.11" x2="402.5" y2="597.42" xlink:href="#Gradiente_sem_nome_86"/>
    <linearGradient id="Gradiente_sem_nome_86-68" x1="259.51" y1="-16.66" x2="257.21" y2="596.87" xlink:href="#Gradiente_sem_nome_86"/>
    <linearGradient id="Gradiente_sem_nome_86-69" x1="367.83" y1="-16.25" x2="365.54" y2="597.28" xlink:href="#Gradiente_sem_nome_86"/>
    <linearGradient id="Gradiente_sem_nome_86-70" x1="25.75" y1="-17.53" x2="23.46" y2="596" xlink:href="#Gradiente_sem_nome_86"/>
    <linearGradient id="Gradiente_sem_nome_86-71" x1="360.45" y1="-16.28" x2="358.15" y2="597.25" xlink:href="#Gradiente_sem_nome_86"/>
    <linearGradient id="Gradiente_sem_nome_86-72" x1="42.44" y1="-17.47" x2="40.14" y2="596.06" xlink:href="#Gradiente_sem_nome_86"/>
    <linearGradient id="Gradiente_sem_nome_86-73" x1="400.91" y1="-16.13" x2="398.61" y2="597.4" xlink:href="#Gradiente_sem_nome_86"/>
    <linearGradient id="Gradiente_sem_nome_86-74" x1="286.09" y1="-16.56" x2="283.8" y2="596.97" xlink:href="#Gradiente_sem_nome_86"/>
    <linearGradient id="Gradiente_sem_nome_86-75" x1="300.8" y1="-16.5" x2="298.5" y2="597.03" xlink:href="#Gradiente_sem_nome_86"/>
    <linearGradient id="Gradiente_sem_nome_86-76" x1="364.24" y1="-16.27" x2="361.94" y2="597.27" xlink:href="#Gradiente_sem_nome_86"/>
    <linearGradient id="Gradiente_sem_nome_86-77" x1="352.1" y1="-16.31" x2="349.8" y2="597.22" xlink:href="#Gradiente_sem_nome_86"/>
    <linearGradient id="Gradiente_sem_nome_86-78" x1="368.22" y1="-16.25" x2="365.92" y2="597.28" xlink:href="#Gradiente_sem_nome_86"/>
    <linearGradient id="Gradiente_sem_nome_86-79" x1="82.4" y1="-17.32" x2="80.1" y2="596.21" xlink:href="#Gradiente_sem_nome_86"/>
    <linearGradient id="Gradiente_sem_nome_86-80" x1="87.72" y1="-17.3" x2="85.42" y2="596.23" xlink:href="#Gradiente_sem_nome_86"/>
    <linearGradient id="Gradiente_sem_nome_86-81" x1="108.5" y1="-17.22" x2="106.2" y2="596.31" xlink:href="#Gradiente_sem_nome_86"/>
    <linearGradient id="Gradiente_sem_nome_86-82" x1="61.64" y1="-17.4" x2="59.35" y2="596.13" xlink:href="#Gradiente_sem_nome_86"/>
    <linearGradient id="Gradiente_sem_nome_86-83" x1="401.35" y1="-16.13" x2="399.05" y2="597.41" xlink:href="#Gradiente_sem_nome_86"/>
    <linearGradient id="Gradiente_sem_nome_86-84" x1="126.64" y1="-17.16" x2="124.34" y2="596.38" xlink:href="#Gradiente_sem_nome_86"/>
    <linearGradient id="Gradiente_sem_nome_86-85" x1="128.04" y1="-17.15" x2="125.74" y2="596.38" xlink:href="#Gradiente_sem_nome_86"/>
    <linearGradient id="Gradiente_sem_nome_86-86" x1="111.53" y1="-17.21" x2="109.24" y2="596.32" gradientTransform="translate(185.84 -14.69) rotate(45)" xlink:href="#Gradiente_sem_nome_86"/>
    <linearGradient id="Gradiente_sem_nome_86-87" x1="157.19" y1="-17.04" x2="154.9" y2="596.49" xlink:href="#Gradiente_sem_nome_86"/>
    <linearGradient id="Gradiente_sem_nome_86-88" x1="194.49" y1="-16.9" x2="192.19" y2="596.63" xlink:href="#Gradiente_sem_nome_86"/>
    <linearGradient id="Gradiente_sem_nome_86-89" x1="234.04" y1="-16.75" x2="231.74" y2="596.78" xlink:href="#Gradiente_sem_nome_86"/>
    <linearGradient id="Gradiente_sem_nome_86-90" x1="133.07" y1="-17.13" x2="130.78" y2="596.4" xlink:href="#Gradiente_sem_nome_86"/>
    <linearGradient id="Gradiente_sem_nome_86-91" x1="63.17" y1="-17.39" x2="60.87" y2="596.14" xlink:href="#Gradiente_sem_nome_86"/>
    <linearGradient id="Gradiente_sem_nome_86-92" x1="17.27" y1="-17.57" x2="14.97" y2="595.97" xlink:href="#Gradiente_sem_nome_86"/>
    <linearGradient id="Gradiente_sem_nome_86-93" x1="311.38" y1="-16.46" x2="309.08" y2="597.07" xlink:href="#Gradiente_sem_nome_86"/>
    <linearGradient id="Gradiente_sem_nome_86-94" x1="300.4" y1="-16.5" x2="298.1" y2="597.03" xlink:href="#Gradiente_sem_nome_86"/>
    <linearGradient id="Gradiente_sem_nome_86-95" x1="300.2" y1="-16.51" x2="297.9" y2="597.03" xlink:href="#Gradiente_sem_nome_86"/>
    <linearGradient id="Gradiente_sem_nome_86-96" x1="318.48" y1="-16.44" x2="316.18" y2="597.1" xlink:href="#Gradiente_sem_nome_86"/>
    <linearGradient id="Gradiente_sem_nome_86-97" x1="367.71" y1="-16.25" x2="365.42" y2="597.28" xlink:href="#Gradiente_sem_nome_86"/>
    <linearGradient id="Gradiente_sem_nome_86-98" x1="195.77" y1="-16.9" x2="193.47" y2="596.64" xlink:href="#Gradiente_sem_nome_86"/>
    <linearGradient id="Gradiente_sem_nome_86-99" x1="162.22" y1="-17.02" x2="159.92" y2="596.51" xlink:href="#Gradiente_sem_nome_86"/>
    <linearGradient id="Gradiente_sem_nome_86-100" x1="215.47" y1="-16.82" x2="213.17" y2="596.71" xlink:href="#Gradiente_sem_nome_86"/>
    <linearGradient id="Gradiente_sem_nome_86-101" x1="215.62" y1="-16.82" x2="213.32" y2="596.71" xlink:href="#Gradiente_sem_nome_86"/>
    <linearGradient id="Gradiente_sem_nome_86-102" x1="252.41" y1="-16.68" x2="250.11" y2="596.85" xlink:href="#Gradiente_sem_nome_86"/>
  </defs>
  <title>bg-mapa_3</title>
  <g id="Camada_2" data-name="Camada 2">
    <g id="Camada_1-2" data-name="Camada 1">
      <g class="cls-2">
        <g>
          <polygon class="cls-3" points="367.33 384.82 388.15 364.01 388.15 326.03 367.84 326.03 367.24 325.43 336.98 295.17 307.33 324.82 367.33 384.82"/>
          <rect class="cls-4" x="162.23" y="399.75" width="9.86" height="21.62"/>
          <polygon class="cls-5" points="113.82 180.36 150.16 216.7 113.27 253.59 122.92 263.25 161.94 224.23 179.36 241.65 208.15 212.85 144.74 149.44 113.82 180.36"/>
          <rect class="cls-6" x="138.5" y="274.55" width="45.15" height="42.66" transform="translate(-162.04 200.56) rotate(-45)"/>
          <polygon class="cls-7" points="388.15 214.13 357.78 214.17 309.77 262.18 347.8 300.21 388.15 259.86 388.15 214.13"/>
          <polygon class="cls-8" points="98.01 379.22 47.16 328.37 35.58 339.95 35.58 383.52 74.83 383.52 74.83 421.37 98.01 421.37 98.01 379.22"/>
          <polygon class="cls-9" points="186.95 509.1 186.95 471.71 158.15 471.71 158.15 458.43 127.11 458.43 127.11 425.46 102.09 425.46 102.09 486.61 151.25 486.61 151.25 509.1 186.95 509.1"/>
          <rect class="cls-10" x="74.83" y="425.46" width="23.18" height="61.15"/>
          <rect class="cls-11" x="55.74" y="307.07" width="38.78" height="32.16" transform="translate(-206.49 147.77) rotate(-45)"/>
          <polygon class="cls-12" points="102.09 421.37 127.11 421.37 127.11 395.67 158.15 395.67 158.15 378.74 103.09 323.69 75.67 351.11 102.09 377.53 102.09 421.37"/>
          <polygon class="cls-13" points="260.28 160.72 309.23 111.77 260.28 111.77 260.28 160.72"/>
          <polygon class="cls-14" points="100.07 266.79 127.14 293.87 176.47 244.54 161.94 230.01 122.92 269.03 110.38 256.48 100.07 266.79"/>
          <polygon class="cls-15" points="395.93 419.2 284.19 307.45 284.19 344.78 358.6 419.2 395.93 419.2"/>
          <rect class="cls-16" x="284.69" y="274.26" width="41.93" height="38.49" transform="translate(-118.01 302.1) rotate(-45)"/>
          <polygon class="cls-17" points="303.99 262.18 234.3 192.49 182.25 244.54 212.41 274.7 234.81 252.3 274.34 291.83 303.99 262.18"/>
          <polygon class="cls-18" points="392.23 326.03 392.23 365.7 370.22 387.71 398.6 416.09 408.57 416.09 408.57 326.03 392.23 326.03"/>
          <rect class="cls-19" x="208.57" y="268.95" width="52.21" height="51.82" transform="translate(-139.76 252.3) rotate(-45)"/>
          <rect class="cls-20" x="176.92" y="248.44" width="20.53" height="42.66" transform="translate(-135.93 211.37) rotate(-45)"/>
          <polygon class="cls-21" points="350.69 303.1 369.53 321.94 408.57 321.94 408.57 262.53 391.26 262.53 350.69 303.1"/>
          <polygon class="cls-22" points="158.15 372.97 158.15 330.66 127.14 299.65 105.98 320.8 158.15 372.97"/>
          <polygon class="cls-23" points="191.04 426.31 191.04 467.62 232.35 467.62 191.04 426.31"/>
          <rect class="cls-24" x="102.09" y="490.7" width="45.07" height="18.41"/>
          <polygon class="cls-25" points="186.95 359.46 162.24 334.74 162.24 395.67 176.18 395.67 176.18 425.46 162.24 425.46 162.24 467.62 186.95 467.62 186.95 359.46"/>
          <rect class="cls-26" x="131.2" y="425.46" width="26.95" height="28.88"/>
          <polygon class="cls-27" points="31.5 338.26 44.27 325.49 0 281.22 0 362.95 31.5 362.95 31.5 338.26"/>
          <polygon class="cls-28" points="0 72.64 0 150.99 82.76 150.99 121.98 111.77 51.12 111.77 51.12 72.64 0 72.64"/>
          <rect class="cls-29" x="240.19" y="549.63" width="33.65" height="20.58"/>
          <rect class="cls-30" x="45.63" y="638.36" width="9.25" height="10.58"/>
          <rect class="cls-31" x="240.19" y="471.71" width="33.65" height="73.83"/>
          <rect class="cls-32" x="240.19" y="574.29" width="33.65" height="68.39"/>
          <polygon class="cls-33" points="54.88 595.73 22.72 595.73 22.72 621.57 45.63 621.57 45.63 634.28 54.88 634.28 54.88 595.73"/>
          <polygon class="cls-34" points="359.2 616.13 305.2 616.13 305.2 612.04 355.46 612.04 355.46 574.29 344.43 574.29 344.43 595.7 293.36 595.7 293.36 642.68 303.24 642.68 303.24 632.32 359.2 632.32 359.2 616.13"/>
          <rect class="cls-35" x="363.29" y="616.13" width="4.39" height="16.19"/>
          <rect class="cls-36" x="363.29" y="595.7" width="45.28" height="16.34"/>
          <polygon class="cls-37" points="372.57 583.44 372.57 574.29 359.55 574.29 359.55 591.62 408.57 591.62 408.57 583.44 372.57 583.44"/>
          <polygon class="cls-38" points="58.97 625.65 58.97 634.28 83.93 634.28 83.93 653.72 110.71 653.72 110.71 625.65 58.97 625.65"/>
          <rect class="cls-39" x="307.33" y="636.41" width="51.87" height="6.27"/>
          <polygon class="cls-40" points="273.83 356.83 229.08 401.58 191.04 363.55 191.04 420.53 238.13 467.62 273.83 467.62 273.83 356.83"/>
          <polygon class="cls-41" points="379.16 96.42 359.55 96.42 359.55 107.69 384.97 107.69 384.88 138.91 408.57 138.91 408.57 78.45 379.16 78.45 379.16 96.42"/>
          <polygon class="cls-42" points="270.84 354.04 217.9 354.04 202.61 369.34 229.08 395.81 270.84 354.04"/>
          <rect class="cls-43" x="278.41" y="12.01" width="34.18" height="62.4"/>
          <polygon class="cls-44" points="278.41 107.69 313.32 107.69 381.72 39.29 363.97 41.29 316.68 41.29 316.68 78.49 278.41 78.49 278.41 107.69"/>
          <polygon class="cls-45" points="263.17 163.61 377.54 163.61 360.41 210.08 408.57 210.01 408.57 143 380.79 143 380.88 111.77 315.01 111.77 263.17 163.61"/>
          <rect class="cls-46" x="359.93" y="423.28" width="48.64" height="44.34"/>
          <rect class="cls-47" x="174.79" y="306.26" width="45.15" height="51.82" transform="translate(-177.07 236.85) rotate(-45)"/>
          <rect class="cls-48" x="23.63" y="513.19" width="13.52" height="20.85"/>
          <polygon class="cls-49" points="75.75 248.26 0 172.51 0 218.1 52.96 271.05 75.75 248.26"/>
          <rect class="cls-50" x="58.97" y="538.13" width="29.68" height="53.52"/>
          <polygon class="cls-51" points="18.63 551.9 37.14 551.9 37.14 538.13 19.54 538.13 19.54 513.19 0 513.19 0 591.64 18.63 591.64 18.63 551.9"/>
          <polyline class="cls-52" points="23.63 509.1 98.01 509.1 98.01 490.7 44.91 490.7 44.91 421.37 70.74 421.37 70.74 387.6 35.58 387.6 35.58 469.47 23.63 469.47"/>
          <polygon class="cls-53" points="58.97 621.57 110.71 621.57 110.71 558.38 98.01 558.38 98.01 538.13 92.73 538.13 92.73 595.73 58.97 595.73 58.97 621.57"/>
          <polygon class="cls-54" points="172.7 171.62 211.04 209.96 256.2 164.81 256.2 111.77 232.55 111.77 172.7 171.62"/>
          <polygon class="cls-55" points="88.65 524.92 69.29 524.92 69.29 513.19 41.23 513.19 41.23 534.04 88.65 534.04 88.65 524.92"/>
          <polygon class="cls-56" points="54.88 538.13 41.23 538.13 41.23 555.99 22.72 555.99 22.72 591.64 54.88 591.64 54.88 538.13"/>
          <polygon class="cls-57" points="41.54 625.65 18.63 625.65 18.63 595.73 0 595.73 0 648.95 41.54 648.95 41.54 625.65"/>
          <polygon class="cls-58" points="179.06 621.57 179.06 595.73 140.94 595.73 140.94 653.72 160.03 653.72 160.03 621.57 179.06 621.57"/>
          <polygon class="cls-59" points="114.79 595.73 114.79 621.57 114.79 623.61 114.79 653.72 136.85 653.72 136.85 595.73 114.79 595.73"/>
          <rect class="cls-60" y="469.47" width="19.54" height="39.63"/>
          <rect class="cls-61" y="413.93" width="31.49" height="51.45"/>
          <rect class="cls-62" x="193.3" width="81.03" height="7.92"/>
          <polygon class="cls-63" points="278.41 0 278.41 7.92 316.68 7.92 316.68 37.21 363.74 37.21 386.36 34.65 392.65 28.36 392.65 0 278.41 0"/>
          <polygon class="cls-64" points="55.2 7.92 113.11 7.92 113.11 107.69 126.07 107.69 159.35 74.41 189.21 74.41 189.21 0 55.2 0 55.2 7.92"/>
          <rect class="cls-65" x="164.12" y="646.76" width="71.98" height="6.96"/>
          <rect class="cls-66" x="260.28" y="78.49" width="14.04" height="29.19"/>
          <polygon class="cls-67" points="60.84 227.57 108.05 180.36 82.76 155.08 0 155.08 0 166.73 60.84 227.57"/>
          <polygon class="cls-68" points="376.65 579.36 392.65 579.36 392.65 534.86 323.03 534.86 323.03 545.54 376.65 545.54 376.65 579.36"/>
          <rect class="cls-69" x="396.73" y="534.86" width="11.84" height="44.5"/>
          <rect class="cls-70" x="240.19" y="646.76" width="33.65" height="6.96"/>
          <rect class="cls-71" x="323.03" y="521.3" width="85.54" height="9.47"/>
          <rect class="cls-72" width="51.12" height="68.55"/>
          <polygon class="cls-73" points="371.77 616.13 371.77 636.41 363.29 636.41 363.29 646.76 307.33 646.76 307.33 653.72 408.57 653.72 408.57 616.13 371.77 616.13"/>
          <polygon class="cls-74" points="79.85 638.36 58.97 638.36 58.97 653.03 0 653.03 0 653.72 79.85 653.72 79.85 638.36"/>
          <polygon class="cls-75" points="396.73 30.05 396.13 30.65 392.87 33.91 408.57 32.14 408.57 0 396.73 0 396.73 30.05"/>
          <rect class="cls-76" x="277.92" y="646.76" width="11.35" height="6.96"/>
          <rect class="cls-77" x="293.36" y="646.76" width="9.89" height="6.96"/>
          <polygon class="cls-78" points="319.1 107.69 355.46 107.69 355.46 92.34 375.07 92.34 375.07 74.36 408.57 74.36 408.57 36.25 388.23 38.55 319.1 107.69"/>
          <rect class="cls-79" x="344.43" y="549.63" width="11.03" height="20.58"/>
          <rect class="cls-80" x="359.55" y="549.63" width="13.02" height="20.58"/>
          <rect class="cls-81" x="55.2" y="12.01" width="53.82" height="95.68"/>
          <polygon class="cls-82" points="92.73 534.04 98.01 534.04 98.01 513.19 73.37 513.19 73.37 520.84 92.73 520.84 92.73 534.04"/>
          <rect class="cls-83" x="102.09" y="531.12" width="8.62" height="23.17"/>
          <rect class="cls-84" x="49" y="425.46" width="21.74" height="61.15"/>
          <polygon class="cls-85" points="392.23 214.12 392.23 258.44 408.57 258.44 408.57 214.1 392.23 214.12"/>
          <rect class="cls-86" x="102.09" y="513.19" width="45.07" height="13.84"/>
          <rect class="cls-87" x="114.79" y="558.38" width="22.06" height="33.27"/>
          <rect class="cls-88" x="86.61" y="193.33" width="48.09" height="47.3" transform="translate(-121.02 141.8) rotate(-45)"/>
          <polygon class="cls-89" points="86.5 153.03 110.94 177.47 144.74 143.66 169.81 168.73 226.77 111.77 127.76 111.77 86.5 153.03"/>
          <polygon class="cls-90" points="131.84 107.69 230.86 107.69 231.71 107.69 256.2 107.69 256.2 78.49 161.04 78.49 131.84 107.69"/>
          <polygon class="cls-91" points="193.3 74.41 258.24 74.41 260.28 74.41 274.32 74.41 274.32 12.01 193.3 12.01 193.3 74.41"/>
          <rect class="cls-92" x="114.79" y="531.12" width="32.37" height="23.17"/>
          <polygon class="cls-93" points="2.17 277.61 47.16 322.6 77.47 292.29 103.09 317.91 124.25 296.76 78.64 251.15 52.96 276.83 0 223.87 0 279.79 2.17 277.61"/>
          <rect class="cls-94" y="367.04" width="31.49" height="42.81"/>
          <polygon class="cls-95" points="289.27 591.62 340.34 591.62 340.34 574.29 277.92 574.29 277.92 642.68 289.27 642.68 289.27 591.62"/>
          <rect class="cls-96" x="277.92" y="471.71" width="41.02" height="73.83"/>
          <rect class="cls-97" x="277.92" y="442.63" width="41.02" height="24.99"/>
          <polygon class="cls-98" points="323.03 467.62 355.85 467.62 355.85 422.22 282.14 348.52 277.92 352.74 277.92 438.54 323.03 438.54 323.03 467.62"/>
          <rect class="cls-99" x="323.03" y="471.71" width="85.54" height="45.51"/>
          <polygon class="cls-100" points="236.1 549.63 186.95 549.63 186.95 513.19 151.25 513.19 151.25 527.03 169.01 527.03 169.01 559.3 183.15 559.3 183.15 570.21 236.1 570.21 236.1 549.63"/>
          <polygon class="cls-101" points="179.06 563.39 164.93 563.39 164.93 531.12 151.25 531.12 151.25 558.38 140.94 558.38 140.94 591.64 179.06 591.64 179.06 563.39"/>
          <rect class="cls-102" x="191.04" y="471.71" width="45.06" height="37.4"/>
          <rect class="cls-103" x="191.04" y="513.19" width="45.06" height="32.35"/>
          <polygon class="cls-104" points="280.1 344.78 280.1 303.37 274.34 297.61 221.99 349.96 274.93 349.96 280.1 344.78"/>
        </g>
      </g>
    </g>
  </g>
</svg>
