<svg id="Camada_1" data-name="Camada 1" xmlns="http://www.w3.org/2000/svg" width="291.02" height="126.2" viewBox="0 0 291.02 126.2">
  <title>Prancheta 1</title>
  <g>
    <g>
      <path d="M123,45.45a20.27,20.27,0,0,0-3.37.48C62.05,59,58,115,58,115a56.89,56.89,0,0,1-9-39.79h0C81.63,46.1,110.07,44.32,123,45.45Z" style="fill: #ff7f00"/>
      <path d="M130.3,46.65h-.07a17.58,17.58,0,0,0-6.07-1.21c-.4,0-.8,0-1.2,0C110.07,44.32,81.63,46.1,49,75.2h0a61.15,61.15,0,0,1,4.6-17l.61-.7S105.32,28,130.3,46.65Z" style="fill: #ad5200"/>
      <path d="M32.23,40.49S12,55.41.79,38.34C-3.19,19,9.15,7.66,9.15,7.66,14,27.61,23.75,37.13,32.23,40.49Z" style="fill: #fff"/>
    </g>
    <path d="M151.22,0C112.89,0,87.58,40.48,46.64,42.67a31.38,31.38,0,0,1-14.41-2.18S12,55.41.79,38.34A33.88,33.88,0,0,0,23.58,63.08a34.59,34.59,0,0,0,12.51,1.43c10.88-.68,16.3-5.22,17.49-6.26a3.79,3.79,0,0,1,1-.78S105.32,28,130.29,46.65h0C140.09,50.5,144,62.93,144,62.93s8.65-4,9.25-12.44v0a19,19,0,0,0-.34-5.21,25.51,25.51,0,0,0-7.22-13.6c-6.67-6.35-19.16-10.13-44.84-4.24,0,0,14.74-8,27.33-8.09,9.32-.06,21,.36,29.29,21.08C164.69,56,173,49.73,173,49.73s-3.11-34.19,19.69-31.08C192.67,18.65,179.22,0,151.22,0ZM166.6,38.14c-1.43.3-3.35-2-3.88-4.8A10.62,10.62,0,0,1,164.14,26c.29,0,2.87,1.34,3.64,5C168.33,33.63,166.6,38.14,166.6,38.14Z" style="fill: #ff7f00"/>
  </g>
  <g>
    <path d="M92.33,115.56h-9V70.83h31.32v9H92.33v9h13.41v9H92.33Z" style="fill: #fff"/>
    <path d="M162.13,93.38a22.62,22.62,0,0,1-.82,6.13A23.3,23.3,0,0,1,159,105a22.79,22.79,0,0,1-3.61,4.7,24.07,24.07,0,0,1-4.68,3.63A22.93,22.93,0,0,1,139,116.53a22.67,22.67,0,0,1-6.13-.83,23.26,23.26,0,0,1-5.52-2.34,23.55,23.55,0,0,1-4.69-3.63A23.29,23.29,0,0,1,119,105a22.92,22.92,0,0,1-2.34-5.52A23,23,0,0,1,119,81.72,23.17,23.17,0,0,1,122.68,77a22.78,22.78,0,0,1,4.69-3.62,24.09,24.09,0,0,1,5.52-2.33,23.4,23.4,0,0,1,12.28,0,23.72,23.72,0,0,1,5.52,2.33A23.27,23.27,0,0,1,155.37,77,22.67,22.67,0,0,1,159,81.72a22.92,22.92,0,0,1,3.15,11.66Zm-8.88,0a13.86,13.86,0,0,0-1.13-5.54,14.18,14.18,0,0,0-7.56-7.56,14.29,14.29,0,0,0-11.09,0,14.3,14.3,0,0,0-7.58,7.56,13.85,13.85,0,0,0-1.12,5.54,13.61,13.61,0,0,0,1.12,5.51,14.49,14.49,0,0,0,7.58,7.56,14.29,14.29,0,0,0,11.09,0,14.33,14.33,0,0,0,4.52-3.06,14.59,14.59,0,0,0,3-4.5A13.61,13.61,0,0,0,153.25,93.38Z" style="fill: #fff"/>
    <path d="M201.41,115.56H190.55l-8.61-14.44-8.64,14.44H162.51l13.72-22.37L162.51,70.83H173.3l8.64,14.44,8.61-14.44h10.86L187.68,93.19Z" style="fill: #fff"/>
    <path d="M230.92,115.56H204.86V78.34h7.45v29.77h18.61Z" style="fill: #fff"/>
    <path d="M260.19,101.41a15.11,15.11,0,0,1-1.11,5.81,14.65,14.65,0,0,1-3,4.64,14.11,14.11,0,0,1-4.5,3.09,14.1,14.1,0,0,1-11.06,0,14.31,14.31,0,0,1-4.52-3.09,14.51,14.51,0,0,1-3.05-4.64,15.89,15.89,0,0,1,0-11.67A14.49,14.49,0,0,1,236,90.89a14.09,14.09,0,0,1,4.52-3.07A13.64,13.64,0,0,1,246,86.7a14.62,14.62,0,0,1,5.55,1,13.38,13.38,0,0,1,4.5,3,14.11,14.11,0,0,1,3,4.64A15.79,15.79,0,0,1,260.19,101.41Zm-7.14,0a8.31,8.31,0,0,0-.55-3.1A7.47,7.47,0,0,0,251,95.93a6.59,6.59,0,0,0-2.25-1.54,7.32,7.32,0,0,0-5.47,0A6.55,6.55,0,0,0,241,95.93a7.4,7.4,0,0,0-1.49,2.38,8.51,8.51,0,0,0-.54,3.1,8.11,8.11,0,0,0,.54,3,7.67,7.67,0,0,0,1.49,2.39,7.14,7.14,0,0,0,2.24,1.59A6.51,6.51,0,0,0,246,109a6.81,6.81,0,0,0,2.74-.55,6.71,6.71,0,0,0,2.25-1.53,7.3,7.3,0,0,0,1.52-2.39A8.29,8.29,0,0,0,253.05,101.41Z" style="fill: #fff"/>
    <path d="M291,112.06a13.76,13.76,0,0,1-1.11,5.5,14.26,14.26,0,0,1-7.57,7.52,13.64,13.64,0,0,1-5.51,1.12l-3.56,0v-7.09l3.51.06a8.32,8.32,0,0,0,2.82-.43,6,6,0,0,0,2-1.17,5.9,5.9,0,0,0,1.28-1.7,10.76,10.76,0,0,0,.77-2,3.23,3.23,0,0,1-1.2,1.11,8.59,8.59,0,0,1-1.72.7,10.55,10.55,0,0,1-2,.37c-.69.07-1.33.11-1.91.11a15.08,15.08,0,0,1-5.52-1,13.24,13.24,0,0,1-7.56-7.5,16,16,0,0,1-1.12-6.16,15,15,0,0,1,1.12-5.83,14.52,14.52,0,0,1,3.05-4.68,14.07,14.07,0,0,1,4.51-3.08,13.66,13.66,0,0,1,5.52-1.12,10.51,10.51,0,0,1,2.67.34,13.4,13.4,0,0,1,2.57.93,16.58,16.58,0,0,1,2.37,1.4,20,20,0,0,1,2.12,1.74l2.75-3.29H291Zm-7.13-10.65a7.41,7.41,0,0,0-.56-2.81,8,8,0,0,0-1.52-2.41,7.4,7.4,0,0,0-2.24-1.69,6,6,0,0,0-2.74-.64,7.57,7.57,0,0,0-2.74.5,6.06,6.06,0,0,0-2.23,1.45,7,7,0,0,0-1.5,2.37,9,9,0,0,0-.54,3.23,8.56,8.56,0,0,0,.54,3.13,7.31,7.31,0,0,0,1.5,2.38,6.65,6.65,0,0,0,2.23,1.52,7.19,7.19,0,0,0,2.74.53,6,6,0,0,0,2.74-.64,7.4,7.4,0,0,0,2.24-1.69,8,8,0,0,0,1.52-2.41A7.43,7.43,0,0,0,283.89,101.41Z" style="fill: #fff"/>
  </g>
</svg>
